<svg width="20" height="21" viewBox="0 0 20 21" fill="none" xmlns="http://www.w3.org/2000/svg">
<path d="M19.5161 4.3174C19.2058 3.50509 18.7584 2.76898 18.1988 2.15028C17.6389 1.52974 16.9787 1.0366 16.2542 0.697681C15.5029 0.344851 14.6971 0.164253 13.8835 0.16637C12.7422 0.16637 11.6286 0.519705 10.6609 1.18712C10.4294 1.34677 10.2095 1.52213 10.0011 1.71319C9.79279 1.52213 9.57286 1.34677 9.34135 1.18712C8.37364 0.519705 7.26009 0.16637 6.11876 0.16637C5.2969 0.16637 4.50052 0.344346 3.74811 0.697681C3.02118 1.03793 2.36601 1.52736 1.80345 2.15028C1.24319 2.76828 0.795642 3.50457 0.486167 4.3174C0.164371 5.16279 0 6.06052 0 6.98443C0 7.85599 0.157426 8.76419 0.469961 9.6881C0.731565 10.4602 1.10661 11.2611 1.58583 12.0698C2.34518 13.3497 3.38928 14.6845 4.68572 16.0377C6.83412 18.2807 8.96167 19.8301 9.05196 19.8929L9.60064 20.2908C9.84372 20.4661 10.1563 20.4661 10.3993 20.2908L10.948 19.8929C11.0383 19.8275 13.1635 18.2807 15.3143 16.0377C16.6107 14.6845 17.6548 13.3497 18.4141 12.0698C18.8934 11.2611 19.2707 10.4602 19.53 9.6881C19.8425 8.76419 20 7.85599 20 6.98443C20.0023 6.06052 19.8379 5.16279 19.5161 4.3174V4.3174ZM10.0011 18.2205C10.0011 18.2205 1.75946 12.2504 1.75946 6.98443C1.75946 4.3174 3.71107 2.15552 6.11876 2.15552C7.81108 2.15552 9.27884 3.22337 10.0011 4.78328C10.7235 3.22337 12.1912 2.15552 13.8835 2.15552C16.2912 2.15552 18.2428 4.3174 18.2428 6.98443C18.2428 12.2504 10.0011 18.2205 10.0011 18.2205Z" fill="#737373"/>
</svg>
